<?xml version="1.0" encoding="UTF-8" standalone="no"?>
<!DOCTYPE svg PUBLIC "-//W3C//DTD SVG 1.1//EN"
 "http://www.w3.org/Graphics/SVG/1.1/DTD/svg11.dtd">
<!-- Generated by graphviz version 2.47.0 (20210316.0004)
 -->
<!-- Title: dependencies Pages: 1 -->
<svg width="2486pt" height="211pt"
 viewBox="0.00 0.00 2486.00 211.00" xmlns="http://www.w3.org/2000/svg" xmlns:xlink="http://www.w3.org/1999/xlink">
<g id="graph0" class="graph" transform="scale(1 1) rotate(0) translate(4 207)">
<title>dependencies</title>
<polygon fill="white" stroke="transparent" points="-4,4 -4,-207 2482,-207 2482,4 -4,4"/>
<text text-anchor="start" x="1218.01" y="-42.4" font-family="Times-12" font-weight="bold" font-size="14.00">Legend</text>
<polygon fill="#ffffb3" stroke="transparent" points="1005,-10 1005,-30 1025,-30 1025,-10 1005,-10"/>
<text text-anchor="start" x="1028.63" y="-15.4" font-family="Times-12" font-size="14.00"> &#160;Declarations</text>
<polygon fill="#8dd3c7" stroke="transparent" points="1118,-10 1118,-30 1138,-30 1138,-10 1118,-10"/>
<text text-anchor="start" x="1141.73" y="-15.4" font-family="Times-12" font-size="14.00"> &#160;Module</text>
<polygon fill="#80b1d3" stroke="transparent" points="1204,-10 1204,-30 1224,-30 1224,-10 1204,-10"/>
<text text-anchor="start" x="1227.78" y="-15.4" font-family="Times-12" font-size="14.00"> &#160;Bootstrap</text>
<polygon fill="#fdb462" stroke="transparent" points="1301,-10 1301,-30 1321,-30 1321,-10 1301,-10"/>
<text text-anchor="start" x="1324.67" y="-15.4" font-family="Times-12" font-size="14.00"> &#160;Providers</text>
<polygon fill="#fb8072" stroke="transparent" points="1397,-10 1397,-30 1417,-30 1417,-10 1397,-10"/>
<text text-anchor="start" x="1420.73" y="-15.4" font-family="Times-12" font-size="14.00"> &#160;Exports</text>
<g id="clust1" class="cluster">
<title>cluster_OctavaTemporalModule</title>
<polygon fill="none" stroke="black" stroke-dasharray="1,5" points="8,-70 8,-195 2470,-195 2470,-70 8,-70"/>
</g>
<g id="clust4" class="cluster">
<title>cluster_OctavaTemporalModule_imports</title>
<polygon fill="none" stroke="black" points="216,-78 216,-130 2462,-130 2462,-78 216,-78"/>
</g>
<g id="clust2" class="cluster">
<title>cluster_OctavaTemporalModule_declarations</title>
<polygon fill="none" stroke="black" points="16,-78 16,-130 208,-130 208,-78 16,-78"/>
</g>
<!-- OctavaTemporalComponent -->
<g id="node1" class="node">
<title>OctavaTemporalComponent</title>
<polygon fill="#ffffb3" stroke="black" points="199.9,-122 24.1,-122 24.1,-86 199.9,-86 199.9,-122"/>
<text text-anchor="middle" x="112" y="-99.8" font-family="Times,serif" font-size="14.00">OctavaTemporalComponent</text>
</g>
<!-- OctavaTemporalModule -->
<g id="node2" class="node">
<title>OctavaTemporalModule</title>
<polygon fill="#8dd3c7" stroke="black" points="1270.61,-187 1267.61,-191 1246.61,-191 1243.61,-187 1117.39,-187 1117.39,-151 1270.61,-151 1270.61,-187"/>
<text text-anchor="middle" x="1194" y="-164.8" font-family="Times,serif" font-size="14.00">OctavaTemporalModule</text>
</g>
<!-- OctavaTemporalComponent&#45;&gt;OctavaTemporalModule -->
<g id="edge1" class="edge">
<title>OctavaTemporalComponent&#45;&gt;OctavaTemporalModule</title>
<path fill="none" stroke="black" d="M112,-122.09C112,-145.13 112,-182 112,-182 112,-182 1107.05,-182 1107.05,-182"/>
<polygon fill="black" stroke="black" points="1107.05,-185.5 1117.05,-182 1107.05,-178.5 1107.05,-185.5"/>
</g>
<!-- BtnContinuarComponent -->
<g id="node3" class="node">
<title>BtnContinuarComponent</title>
<polygon fill="#8dd3c7" stroke="black" points="2453.55,-122 2450.55,-126 2429.55,-126 2426.55,-122 2296.45,-122 2296.45,-86 2453.55,-86 2453.55,-122"/>
<text text-anchor="middle" x="2375" y="-99.8" font-family="Times,serif" font-size="14.00">BtnContinuarComponent</text>
</g>
<!-- BtnContinuarComponent&#45;&gt;OctavaTemporalModule -->
<g id="edge2" class="edge">
<title>BtnContinuarComponent&#45;&gt;OctavaTemporalModule</title>
<path fill="none" stroke="black" d="M2375,-122.09C2375,-145.13 2375,-182 2375,-182 2375,-182 1281.03,-182 1281.03,-182"/>
<polygon fill="black" stroke="black" points="1281.03,-178.5 1271.03,-182 1281.03,-185.5 1281.03,-178.5"/>
</g>
<!-- CriterioDeDictComponent -->
<g id="node4" class="node">
<title>CriterioDeDictComponent</title>
<polygon fill="#8dd3c7" stroke="black" points="2278.8,-122 2275.8,-126 2254.8,-126 2251.8,-122 2113.2,-122 2113.2,-86 2278.8,-86 2278.8,-122"/>
<text text-anchor="middle" x="2196" y="-99.8" font-family="Times,serif" font-size="14.00">CriterioDeDictComponent</text>
</g>
<!-- CriterioDeDictComponent&#45;&gt;OctavaTemporalModule -->
<g id="edge3" class="edge">
<title>CriterioDeDictComponent&#45;&gt;OctavaTemporalModule</title>
<path fill="none" stroke="black" d="M2196,-122.04C2196,-143.66 2196,-177 2196,-177 2196,-177 1280.96,-177 1280.96,-177"/>
<polygon fill="black" stroke="black" points="1280.96,-173.5 1270.96,-177 1280.96,-180.5 1280.96,-173.5"/>
</g>
<!-- DetosDelMarcanciaComponent -->
<g id="node5" class="node">
<title>DetosDelMarcanciaComponent</title>
<polygon fill="#8dd3c7" stroke="black" points="2095.77,-122 2092.77,-126 2071.77,-126 2068.77,-122 1902.23,-122 1902.23,-86 2095.77,-86 2095.77,-122"/>
<text text-anchor="middle" x="1999" y="-99.8" font-family="Times,serif" font-size="14.00">DetosDelMarcanciaComponent</text>
</g>
<!-- DetosDelMarcanciaComponent&#45;&gt;OctavaTemporalModule -->
<g id="edge4" class="edge">
<title>DetosDelMarcanciaComponent&#45;&gt;OctavaTemporalModule</title>
<path fill="none" stroke="black" d="M1999,-122.22C1999,-142.37 1999,-172 1999,-172 1999,-172 1280.82,-172 1280.82,-172"/>
<polygon fill="black" stroke="black" points="1280.82,-168.5 1270.82,-172 1280.82,-175.5 1280.82,-168.5"/>
</g>
<!-- DetosDelTramiteComponent -->
<g id="node6" class="node">
<title>DetosDelTramiteComponent</title>
<polygon fill="#8dd3c7" stroke="black" points="1884.02,-122 1881.02,-126 1860.02,-126 1857.02,-122 1705.98,-122 1705.98,-86 1884.02,-86 1884.02,-122"/>
<text text-anchor="middle" x="1795" y="-99.8" font-family="Times,serif" font-size="14.00">DetosDelTramiteComponent</text>
</g>
<!-- DetosDelTramiteComponent&#45;&gt;OctavaTemporalModule -->
<g id="edge5" class="edge">
<title>DetosDelTramiteComponent&#45;&gt;OctavaTemporalModule</title>
<path fill="none" stroke="black" d="M1795,-122.22C1795,-140.83 1795,-167 1795,-167 1795,-167 1280.73,-167 1280.73,-167"/>
<polygon fill="black" stroke="black" points="1280.73,-163.5 1270.73,-167 1280.73,-170.5 1280.73,-163.5"/>
</g>
<!-- OctavaTemporalRoutingModule -->
<g id="node7" class="node">
<title>OctavaTemporalRoutingModule</title>
<polygon fill="#8dd3c7" stroke="black" points="1687.23,-122 1684.23,-126 1663.23,-126 1660.23,-122 1488.77,-122 1488.77,-86 1687.23,-86 1687.23,-122"/>
<text text-anchor="middle" x="1588" y="-99.8" font-family="Times,serif" font-size="14.00">OctavaTemporalRoutingModule</text>
</g>
<!-- OctavaTemporalRoutingModule&#45;&gt;OctavaTemporalModule -->
<g id="edge6" class="edge">
<title>OctavaTemporalRoutingModule&#45;&gt;OctavaTemporalModule</title>
<path fill="none" stroke="black" d="M1588,-122.03C1588,-139.06 1588,-162 1588,-162 1588,-162 1280.9,-162 1280.9,-162"/>
<polygon fill="black" stroke="black" points="1280.9,-158.5 1270.9,-162 1280.9,-165.5 1280.9,-158.5"/>
</g>
<!-- PaisProcendenciaComponent -->
<g id="node8" class="node">
<title>PaisProcendenciaComponent</title>
<polygon fill="#8dd3c7" stroke="black" points="1471.07,-122 1468.07,-126 1447.07,-126 1444.07,-122 1290.93,-122 1290.93,-86 1471.07,-86 1471.07,-122"/>
<text text-anchor="middle" x="1381" y="-99.8" font-family="Times,serif" font-size="14.00">PaisProcendenciaComponent</text>
</g>
<!-- PaisProcendenciaComponent&#45;&gt;OctavaTemporalModule -->
<g id="edge7" class="edge">
<title>PaisProcendenciaComponent&#45;&gt;OctavaTemporalModule</title>
<path fill="none" stroke="black" d="M1381,-122.24C1381,-137.57 1381,-157 1381,-157 1381,-157 1280.87,-157 1280.87,-157"/>
<polygon fill="black" stroke="black" points="1280.87,-153.5 1270.87,-157 1280.87,-160.5 1280.87,-153.5"/>
</g>
<!-- PartidasDeLaComponent -->
<g id="node9" class="node">
<title>PartidasDeLaComponent</title>
<polygon fill="#8dd3c7" stroke="black" points="1272.52,-122 1269.52,-126 1248.52,-126 1245.52,-122 1115.48,-122 1115.48,-86 1272.52,-86 1272.52,-122"/>
<text text-anchor="middle" x="1194" y="-99.8" font-family="Times,serif" font-size="14.00">PartidasDeLaComponent</text>
</g>
<!-- PartidasDeLaComponent&#45;&gt;OctavaTemporalModule -->
<g id="edge8" class="edge">
<title>PartidasDeLaComponent&#45;&gt;OctavaTemporalModule</title>
<path fill="none" stroke="black" d="M1194,-122.11C1194,-122.11 1194,-140.99 1194,-140.99"/>
<polygon fill="black" stroke="black" points="1190.5,-140.99 1194,-150.99 1197.5,-140.99 1190.5,-140.99"/>
</g>
<!-- RepresentacionComponent -->
<g id="node10" class="node">
<title>RepresentacionComponent</title>
<polygon fill="#8dd3c7" stroke="black" points="1096.63,-122 1093.63,-126 1072.63,-126 1069.63,-122 929.37,-122 929.37,-86 1096.63,-86 1096.63,-122"/>
<text text-anchor="middle" x="1013" y="-99.8" font-family="Times,serif" font-size="14.00">RepresentacionComponent</text>
</g>
<!-- RepresentacionComponent&#45;&gt;OctavaTemporalModule -->
<g id="edge9" class="edge">
<title>RepresentacionComponent&#45;&gt;OctavaTemporalModule</title>
<path fill="none" stroke="black" d="M1013,-122.24C1013,-137.57 1013,-157 1013,-157 1013,-157 1107.24,-157 1107.24,-157"/>
<polygon fill="black" stroke="black" points="1107.24,-160.5 1117.24,-157 1107.24,-153.5 1107.24,-160.5"/>
</g>
<!-- SolicitanteOctavaTemporalComponent -->
<g id="node11" class="node">
<title>SolicitanteOctavaTemporalComponent</title>
<polygon fill="#8dd3c7" stroke="black" points="911.78,-122 908.78,-126 887.78,-126 884.78,-122 676.22,-122 676.22,-86 911.78,-86 911.78,-122"/>
<text text-anchor="middle" x="794" y="-99.8" font-family="Times,serif" font-size="14.00">SolicitanteOctavaTemporalComponent</text>
</g>
<!-- SolicitanteOctavaTemporalComponent&#45;&gt;OctavaTemporalModule -->
<g id="edge10" class="edge">
<title>SolicitanteOctavaTemporalComponent&#45;&gt;OctavaTemporalModule</title>
<path fill="none" stroke="black" d="M794,-122.03C794,-139.06 794,-162 794,-162 794,-162 1107.35,-162 1107.35,-162"/>
<polygon fill="black" stroke="black" points="1107.35,-165.5 1117.35,-162 1107.35,-158.5 1107.35,-165.5"/>
</g>
<!-- TituloComponent -->
<g id="node12" class="node">
<title>TituloComponent</title>
<polygon fill="#8dd3c7" stroke="black" points="658.56,-122 655.56,-126 634.56,-126 631.56,-122 543.44,-122 543.44,-86 658.56,-86 658.56,-122"/>
<text text-anchor="middle" x="601" y="-99.8" font-family="Times,serif" font-size="14.00">TituloComponent</text>
</g>
<!-- TituloComponent&#45;&gt;OctavaTemporalModule -->
<g id="edge11" class="edge">
<title>TituloComponent&#45;&gt;OctavaTemporalModule</title>
<path fill="none" stroke="black" d="M601,-122.22C601,-140.83 601,-167 601,-167 601,-167 1107.08,-167 1107.08,-167"/>
<polygon fill="black" stroke="black" points="1107.08,-170.5 1117.08,-167 1107.08,-163.5 1107.08,-170.5"/>
</g>
<!-- UsoEspicificoComponent -->
<g id="node13" class="node">
<title>UsoEspicificoComponent</title>
<polygon fill="#8dd3c7" stroke="black" points="525.14,-122 522.14,-126 501.14,-126 498.14,-122 364.86,-122 364.86,-86 525.14,-86 525.14,-122"/>
<text text-anchor="middle" x="445" y="-99.8" font-family="Times,serif" font-size="14.00">UsoEspicificoComponent</text>
</g>
<!-- UsoEspicificoComponent&#45;&gt;OctavaTemporalModule -->
<g id="edge12" class="edge">
<title>UsoEspicificoComponent&#45;&gt;OctavaTemporalModule</title>
<path fill="none" stroke="black" d="M445,-122.22C445,-142.37 445,-172 445,-172 445,-172 1107.36,-172 1107.36,-172"/>
<polygon fill="black" stroke="black" points="1107.36,-175.5 1117.36,-172 1107.36,-168.5 1107.36,-175.5"/>
</g>
<!-- WizardComponent -->
<g id="node14" class="node">
<title>WizardComponent</title>
<polygon fill="#8dd3c7" stroke="black" points="346.03,-122 343.03,-126 322.03,-126 319.03,-122 223.97,-122 223.97,-86 346.03,-86 346.03,-122"/>
<text text-anchor="middle" x="285" y="-99.8" font-family="Times,serif" font-size="14.00">WizardComponent</text>
</g>
<!-- WizardComponent&#45;&gt;OctavaTemporalModule -->
<g id="edge13" class="edge">
<title>WizardComponent&#45;&gt;OctavaTemporalModule</title>
<path fill="none" stroke="black" d="M285,-122.04C285,-143.66 285,-177 285,-177 285,-177 1107.28,-177 1107.28,-177"/>
<polygon fill="black" stroke="black" points="1107.28,-180.5 1117.28,-177 1107.28,-173.5 1107.28,-180.5"/>
</g>
</g>
</svg>
