<?xml version="1.0" encoding="UTF-8" standalone="no"?>
<!DOCTYPE svg PUBLIC "-//W3C//DTD SVG 1.1//EN"
 "http://www.w3.org/Graphics/SVG/1.1/DTD/svg11.dtd">
<!-- Generated by graphviz version 2.47.0 (20210316.0004)
 -->
<!-- Title: dependencies Pages: 1 -->
<svg width="3779pt" height="284pt"
 viewBox="0.00 0.00 3779.00 284.00" xmlns="http://www.w3.org/2000/svg" xmlns:xlink="http://www.w3.org/1999/xlink">
<g id="graph0" class="graph" transform="scale(1 1) rotate(0) translate(4 280)">
<title>dependencies</title>
<polygon fill="white" stroke="transparent" points="-4,4 -4,-280 3775,-280 3775,4 -4,4"/>
<text text-anchor="start" x="1864.51" y="-42.4" font-family="Times-12" font-weight="bold" font-size="14.00">Legend</text>
<polygon fill="#ffffb3" stroke="transparent" points="1651.5,-10 1651.5,-30 1671.5,-30 1671.5,-10 1651.5,-10"/>
<text text-anchor="start" x="1675.13" y="-15.4" font-family="Times-12" font-size="14.00"> &#160;Declarations</text>
<polygon fill="#8dd3c7" stroke="transparent" points="1764.5,-10 1764.5,-30 1784.5,-30 1784.5,-10 1764.5,-10"/>
<text text-anchor="start" x="1788.23" y="-15.4" font-family="Times-12" font-size="14.00"> &#160;Module</text>
<polygon fill="#80b1d3" stroke="transparent" points="1850.5,-10 1850.5,-30 1870.5,-30 1870.5,-10 1850.5,-10"/>
<text text-anchor="start" x="1874.28" y="-15.4" font-family="Times-12" font-size="14.00"> &#160;Bootstrap</text>
<polygon fill="#fdb462" stroke="transparent" points="1947.5,-10 1947.5,-30 1967.5,-30 1967.5,-10 1947.5,-10"/>
<text text-anchor="start" x="1971.17" y="-15.4" font-family="Times-12" font-size="14.00"> &#160;Providers</text>
<polygon fill="#fb8072" stroke="transparent" points="2043.5,-10 2043.5,-30 2063.5,-30 2063.5,-10 2043.5,-10"/>
<text text-anchor="start" x="2067.23" y="-15.4" font-family="Times-12" font-size="14.00"> &#160;Exports</text>
<g id="clust1" class="cluster">
<title>cluster_ServiciosExtraordinariosModule</title>
<polygon fill="none" stroke="black" stroke-dasharray="1,5" points="8,-70 8,-268 3763,-268 3763,-70 8,-70"/>
</g>
<g id="clust4" class="cluster">
<title>cluster_ServiciosExtraordinariosModule_imports</title>
<polygon fill="none" stroke="black" points="170,-78 170,-130 3755,-130 3755,-78 170,-78"/>
</g>
<g id="clust2" class="cluster">
<title>cluster_ServiciosExtraordinariosModule_declarations</title>
<polygon fill="none" stroke="black" points="16,-78 16,-130 162,-130 162,-78 16,-78"/>
</g>
<g id="clust5" class="cluster">
<title>cluster_ServiciosExtraordinariosModule_exports</title>
<polygon fill="none" stroke="black" points="1766,-208 1766,-260 1916,-260 1916,-208 1766,-208"/>
</g>
<!-- TercerosComponent -->
<g id="node1" class="node">
<title>TercerosComponent</title>
<polygon fill="#ffffb3" stroke="black" points="154.29,-122 23.71,-122 23.71,-86 154.29,-86 154.29,-122"/>
<text text-anchor="middle" x="89" y="-99.8" font-family="Times,serif" font-size="14.00">TercerosComponent</text>
</g>
<!-- ServiciosExtraordinariosModule -->
<g id="node2" class="node">
<title>ServiciosExtraordinariosModule</title>
<polygon fill="#8dd3c7" stroke="black" points="1940.23,-187 1937.23,-191 1916.23,-191 1913.23,-187 1741.77,-187 1741.77,-151 1940.23,-151 1940.23,-187"/>
<text text-anchor="middle" x="1841" y="-164.8" font-family="Times,serif" font-size="14.00">ServiciosExtraordinariosModule</text>
</g>
<!-- TercerosComponent&#45;&gt;ServiciosExtraordinariosModule -->
<g id="edge1" class="edge">
<title>TercerosComponent&#45;&gt;ServiciosExtraordinariosModule</title>
<path fill="none" stroke="black" d="M89,-122.15C89,-145.76 89,-184 89,-184 89,-184 1731.47,-184 1731.47,-184"/>
<polygon fill="black" stroke="black" points="1731.47,-187.5 1741.47,-184 1731.47,-180.5 1731.47,-187.5"/>
</g>
<!-- TercerosComponent  -->
<g id="node24" class="node">
<title>TercerosComponent </title>
<polygon fill="#fb8072" stroke="black" points="1907.79,-252 1774.21,-252 1774.21,-216 1907.79,-216 1907.79,-252"/>
<text text-anchor="middle" x="1841" y="-229.8" font-family="Times,serif" font-size="14.00">TercerosComponent </text>
</g>
<!-- ServiciosExtraordinariosModule&#45;&gt;TercerosComponent  -->
<g id="edge23" class="edge">
<title>ServiciosExtraordinariosModule&#45;&gt;TercerosComponent </title>
<path fill="none" stroke="black" stroke-dasharray="5,2" d="M1841,-187.11C1841,-187.11 1841,-205.99 1841,-205.99"/>
<polygon fill="black" stroke="black" points="1837.5,-205.99 1841,-215.99 1844.5,-205.99 1837.5,-205.99"/>
</g>
<!-- AgregaPersonasComponent -->
<g id="node3" class="node">
<title>AgregaPersonasComponent</title>
<polygon fill="#8dd3c7" stroke="black" points="3747.29,-122 3744.29,-126 3723.29,-126 3720.29,-122 3574.71,-122 3574.71,-86 3747.29,-86 3747.29,-122"/>
<text text-anchor="middle" x="3661" y="-99.8" font-family="Times,serif" font-size="14.00">AgregaPersonasComponent</text>
</g>
<!-- AgregaPersonasComponent&#45;&gt;ServiciosExtraordinariosModule -->
<g id="edge2" class="edge">
<title>AgregaPersonasComponent&#45;&gt;ServiciosExtraordinariosModule</title>
<path fill="none" stroke="black" d="M3661,-122.15C3661,-145.76 3661,-184 3661,-184 3661,-184 1950.47,-184 1950.47,-184"/>
<polygon fill="black" stroke="black" points="1950.47,-180.5 1940.47,-184 1950.47,-187.5 1950.47,-180.5"/>
</g>
<!-- AgregarTransporteComponent -->
<g id="node4" class="node">
<title>AgregarTransporteComponent</title>
<polygon fill="#8dd3c7" stroke="black" points="3556.83,-122 3553.83,-126 3532.83,-126 3529.83,-122 3369.17,-122 3369.17,-86 3556.83,-86 3556.83,-122"/>
<text text-anchor="middle" x="3463" y="-99.8" font-family="Times,serif" font-size="14.00">AgregarTransporteComponent</text>
</g>
<!-- AgregarTransporteComponent&#45;&gt;ServiciosExtraordinariosModule -->
<g id="edge3" class="edge">
<title>AgregarTransporteComponent&#45;&gt;ServiciosExtraordinariosModule</title>
<path fill="none" stroke="black" d="M3463,-122.25C3463,-145.02 3463,-181 3463,-181 3463,-181 1950.33,-181 1950.33,-181"/>
<polygon fill="black" stroke="black" points="1950.33,-177.5 1940.33,-181 1950.33,-184.5 1950.33,-177.5"/>
</g>
<!-- AlertComponent -->
<g id="node5" class="node">
<title>AlertComponent</title>
<polygon fill="#8dd3c7" stroke="black" points="3351.1,-122 3348.1,-126 3327.1,-126 3324.1,-122 3240.9,-122 3240.9,-86 3351.1,-86 3351.1,-122"/>
<text text-anchor="middle" x="3296" y="-99.8" font-family="Times,serif" font-size="14.00">AlertComponent</text>
</g>
<!-- AlertComponent&#45;&gt;ServiciosExtraordinariosModule -->
<g id="edge4" class="edge">
<title>AlertComponent&#45;&gt;ServiciosExtraordinariosModule</title>
<path fill="none" stroke="black" d="M3296,-122.29C3296,-144.21 3296,-178 3296,-178 3296,-178 1950.44,-178 1950.44,-178"/>
<polygon fill="black" stroke="black" points="1950.44,-174.5 1940.44,-178 1950.44,-181.5 1950.44,-174.5"/>
</g>
<!-- AnexarDocumentosComponent -->
<g id="node6" class="node">
<title>AnexarDocumentosComponent</title>
<polygon fill="#8dd3c7" stroke="black" points="3222.79,-122 3219.79,-126 3198.79,-126 3195.79,-122 3029.21,-122 3029.21,-86 3222.79,-86 3222.79,-122"/>
<text text-anchor="middle" x="3126" y="-99.8" font-family="Times,serif" font-size="14.00">AnexarDocumentosComponent</text>
</g>
<!-- AnexarDocumentosComponent&#45;&gt;ServiciosExtraordinariosModule -->
<g id="edge5" class="edge">
<title>AnexarDocumentosComponent&#45;&gt;ServiciosExtraordinariosModule</title>
<path fill="none" stroke="black" d="M3126,-122.03C3126,-142.77 3126,-174 3126,-174 3126,-174 1950.23,-174 1950.23,-174"/>
<polygon fill="black" stroke="black" points="1950.23,-170.5 1940.23,-174 1950.23,-177.5 1950.23,-170.5"/>
</g>
<!-- BtnContinuarComponent -->
<g id="node7" class="node">
<title>BtnContinuarComponent</title>
<polygon fill="#8dd3c7" stroke="black" points="3011.55,-122 3008.55,-126 2987.55,-126 2984.55,-122 2854.45,-122 2854.45,-86 3011.55,-86 3011.55,-122"/>
<text text-anchor="middle" x="2933" y="-99.8" font-family="Times,serif" font-size="14.00">BtnContinuarComponent</text>
</g>
<!-- BtnContinuarComponent&#45;&gt;ServiciosExtraordinariosModule -->
<g id="edge6" class="edge">
<title>BtnContinuarComponent&#45;&gt;ServiciosExtraordinariosModule</title>
<path fill="none" stroke="black" d="M2933,-122.31C2933,-142.15 2933,-171 2933,-171 2933,-171 1950.32,-171 1950.32,-171"/>
<polygon fill="black" stroke="black" points="1950.32,-167.5 1940.32,-171 1950.32,-174.5 1950.32,-167.5"/>
</g>
<!-- CatalogoSelectComponent -->
<g id="node8" class="node">
<title>CatalogoSelectComponent</title>
<polygon fill="#8dd3c7" stroke="black" points="2836.09,-122 2833.09,-126 2812.09,-126 2809.09,-122 2669.91,-122 2669.91,-86 2836.09,-86 2836.09,-122"/>
<text text-anchor="middle" x="2753" y="-99.8" font-family="Times,serif" font-size="14.00">CatalogoSelectComponent</text>
</g>
<!-- CatalogoSelectComponent&#45;&gt;ServiciosExtraordinariosModule -->
<g id="edge7" class="edge">
<title>CatalogoSelectComponent&#45;&gt;ServiciosExtraordinariosModule</title>
<path fill="none" stroke="black" d="M2753,-122.17C2753,-141.09 2753,-168 2753,-168 2753,-168 1950.34,-168 1950.34,-168"/>
<polygon fill="black" stroke="black" points="1950.34,-164.5 1940.34,-168 1950.34,-171.5 1950.34,-164.5"/>
</g>
<!-- CrosslistComponent -->
<g id="node9" class="node">
<title>CrosslistComponent</title>
<polygon fill="#8dd3c7" stroke="black" points="2652.34,-122 2649.34,-126 2628.34,-126 2625.34,-122 2521.66,-122 2521.66,-86 2652.34,-86 2652.34,-122"/>
<text text-anchor="middle" x="2587" y="-99.8" font-family="Times,serif" font-size="14.00">CrosslistComponent</text>
</g>
<!-- CrosslistComponent&#45;&gt;ServiciosExtraordinariosModule -->
<g id="edge8" class="edge">
<title>CrosslistComponent&#45;&gt;ServiciosExtraordinariosModule</title>
<path fill="none" stroke="black" d="M2587,-122.3C2587,-140.27 2587,-165 2587,-165 2587,-165 1950.45,-165 1950.45,-165"/>
<polygon fill="black" stroke="black" points="1950.45,-161.5 1940.45,-165 1950.45,-168.5 1950.45,-161.5"/>
</g>
<!-- FirmaElectronicaComponent -->
<g id="node10" class="node">
<title>FirmaElectronicaComponent</title>
<polygon fill="#8dd3c7" stroke="black" points="2504.02,-122 2501.02,-126 2480.02,-126 2477.02,-122 2325.98,-122 2325.98,-86 2504.02,-86 2504.02,-122"/>
<text text-anchor="middle" x="2415" y="-99.8" font-family="Times,serif" font-size="14.00">FirmaElectronicaComponent</text>
</g>
<!-- FirmaElectronicaComponent&#45;&gt;ServiciosExtraordinariosModule -->
<g id="edge9" class="edge">
<title>FirmaElectronicaComponent&#45;&gt;ServiciosExtraordinariosModule</title>
<path fill="none" stroke="black" d="M2415,-122.04C2415,-138.73 2415,-161 2415,-161 2415,-161 1950.33,-161 1950.33,-161"/>
<polygon fill="black" stroke="black" points="1950.33,-157.5 1940.33,-161 1950.33,-164.5 1950.33,-157.5"/>
</g>
<!-- InputCheckComponent -->
<g id="node11" class="node">
<title>InputCheckComponent</title>
<polygon fill="#8dd3c7" stroke="black" points="2307.15,-122 2304.15,-126 2283.15,-126 2280.15,-122 2160.85,-122 2160.85,-86 2307.15,-86 2307.15,-122"/>
<text text-anchor="middle" x="2234" y="-99.8" font-family="Times,serif" font-size="14.00">InputCheckComponent</text>
</g>
<!-- InputCheckComponent&#45;&gt;ServiciosExtraordinariosModule -->
<g id="edge10" class="edge">
<title>InputCheckComponent&#45;&gt;ServiciosExtraordinariosModule</title>
<path fill="none" stroke="black" d="M2234,-122.28C2234,-137.95 2234,-158 2234,-158 2234,-158 1950.42,-158 1950.42,-158"/>
<polygon fill="black" stroke="black" points="1950.42,-154.5 1940.42,-158 1950.42,-161.5 1950.42,-154.5"/>
</g>
<!-- InputFechaComponent -->
<g id="node12" class="node">
<title>InputFechaComponent</title>
<polygon fill="#8dd3c7" stroke="black" points="2143.31,-122 2140.31,-126 2119.31,-126 2116.31,-122 1998.69,-122 1998.69,-86 2143.31,-86 2143.31,-122"/>
<text text-anchor="middle" x="2071" y="-99.8" font-family="Times,serif" font-size="14.00">InputFechaComponent</text>
</g>
<!-- InputFechaComponent&#45;&gt;ServiciosExtraordinariosModule -->
<g id="edge11" class="edge">
<title>InputFechaComponent&#45;&gt;ServiciosExtraordinariosModule</title>
<path fill="none" stroke="black" d="M2071,-122.12C2071,-136.78 2071,-155 2071,-155 2071,-155 1950.54,-155 1950.54,-155"/>
<polygon fill="black" stroke="black" points="1950.54,-151.5 1940.54,-155 1950.54,-158.5 1950.54,-151.5"/>
</g>
<!-- InputHoraComponent -->
<g id="node13" class="node">
<title>InputHoraComponent</title>
<polygon fill="#8dd3c7" stroke="black" points="1980.37,-122 1977.37,-126 1956.37,-126 1953.37,-122 1841.63,-122 1841.63,-86 1980.37,-86 1980.37,-122"/>
<text text-anchor="middle" x="1911" y="-99.8" font-family="Times,serif" font-size="14.00">InputHoraComponent</text>
</g>
<!-- InputHoraComponent&#45;&gt;ServiciosExtraordinariosModule -->
<g id="edge12" class="edge">
<title>InputHoraComponent&#45;&gt;ServiciosExtraordinariosModule</title>
<path fill="none" stroke="black" d="M1890.97,-122.11C1890.97,-122.11 1890.97,-140.99 1890.97,-140.99"/>
<polygon fill="black" stroke="black" points="1887.47,-140.99 1890.97,-150.99 1894.47,-140.99 1887.47,-140.99"/>
</g>
<!-- NavComponent -->
<g id="node14" class="node">
<title>NavComponent</title>
<polygon fill="#8dd3c7" stroke="black" points="1823.15,-122 1820.15,-126 1799.15,-126 1796.15,-122 1718.85,-122 1718.85,-86 1823.15,-86 1823.15,-122"/>
<text text-anchor="middle" x="1771" y="-99.8" font-family="Times,serif" font-size="14.00">NavComponent</text>
</g>
<!-- NavComponent&#45;&gt;ServiciosExtraordinariosModule -->
<g id="edge13" class="edge">
<title>NavComponent&#45;&gt;ServiciosExtraordinariosModule</title>
<path fill="none" stroke="black" d="M1782.48,-122.11C1782.48,-122.11 1782.48,-140.99 1782.48,-140.99"/>
<polygon fill="black" stroke="black" points="1778.98,-140.99 1782.48,-150.99 1785.98,-140.99 1778.98,-140.99"/>
</g>
<!-- PedimentoComponent -->
<g id="node15" class="node">
<title>PedimentoComponent</title>
<polygon fill="#8dd3c7" stroke="black" points="1700.72,-122 1697.72,-126 1676.72,-126 1673.72,-122 1559.28,-122 1559.28,-86 1700.72,-86 1700.72,-122"/>
<text text-anchor="middle" x="1630" y="-99.8" font-family="Times,serif" font-size="14.00">PedimentoComponent</text>
</g>
<!-- PedimentoComponent&#45;&gt;ServiciosExtraordinariosModule -->
<g id="edge14" class="edge">
<title>PedimentoComponent&#45;&gt;ServiciosExtraordinariosModule</title>
<path fill="none" stroke="black" d="M1630,-122.12C1630,-136.78 1630,-155 1630,-155 1630,-155 1731.68,-155 1731.68,-155"/>
<polygon fill="black" stroke="black" points="1731.68,-158.5 1741.68,-155 1731.68,-151.5 1731.68,-158.5"/>
</g>
<!-- RepresentanteFiscalComponent -->
<g id="node16" class="node">
<title>RepresentanteFiscalComponent</title>
<polygon fill="#8dd3c7" stroke="black" points="1541.07,-122 1538.07,-126 1517.07,-126 1514.07,-122 1346.93,-122 1346.93,-86 1541.07,-86 1541.07,-122"/>
<text text-anchor="middle" x="1444" y="-99.8" font-family="Times,serif" font-size="14.00">RepresentanteFiscalComponent</text>
</g>
<!-- RepresentanteFiscalComponent&#45;&gt;ServiciosExtraordinariosModule -->
<g id="edge15" class="edge">
<title>RepresentanteFiscalComponent&#45;&gt;ServiciosExtraordinariosModule</title>
<path fill="none" stroke="black" d="M1444,-122.28C1444,-137.95 1444,-158 1444,-158 1444,-158 1731.59,-158 1731.59,-158"/>
<polygon fill="black" stroke="black" points="1731.59,-161.5 1741.59,-158 1731.59,-154.5 1731.59,-161.5"/>
</g>
<!-- SelectCatalogosComponent -->
<g id="node17" class="node">
<title>SelectCatalogosComponent</title>
<polygon fill="#8dd3c7" stroke="black" points="1328.53,-122 1325.53,-126 1304.53,-126 1301.53,-122 1157.47,-122 1157.47,-86 1328.53,-86 1328.53,-122"/>
<text text-anchor="middle" x="1243" y="-99.8" font-family="Times,serif" font-size="14.00">SelectCatalogosComponent</text>
</g>
<!-- SelectCatalogosComponent&#45;&gt;ServiciosExtraordinariosModule -->
<g id="edge16" class="edge">
<title>SelectCatalogosComponent&#45;&gt;ServiciosExtraordinariosModule</title>
<path fill="none" stroke="black" d="M1243,-122.04C1243,-138.73 1243,-161 1243,-161 1243,-161 1731.58,-161 1731.58,-161"/>
<polygon fill="black" stroke="black" points="1731.58,-164.5 1741.58,-161 1731.58,-157.5 1731.58,-164.5"/>
</g>
<!-- SelectPaisesComponent -->
<g id="node18" class="node">
<title>SelectPaisesComponent</title>
<polygon fill="#8dd3c7" stroke="black" points="1139.03,-122 1136.03,-126 1115.03,-126 1112.03,-122 988.97,-122 988.97,-86 1139.03,-86 1139.03,-122"/>
<text text-anchor="middle" x="1064" y="-99.8" font-family="Times,serif" font-size="14.00">SelectPaisesComponent</text>
</g>
<!-- SelectPaisesComponent&#45;&gt;ServiciosExtraordinariosModule -->
<g id="edge17" class="edge">
<title>SelectPaisesComponent&#45;&gt;ServiciosExtraordinariosModule</title>
<path fill="none" stroke="black" d="M1064,-122.3C1064,-140.27 1064,-165 1064,-165 1064,-165 1731.41,-165 1731.41,-165"/>
<polygon fill="black" stroke="black" points="1731.41,-168.5 1741.41,-165 1731.41,-161.5 1731.41,-168.5"/>
</g>
<!-- ServiciosExtraordinariosRoutingModule -->
<g id="node19" class="node">
<title>ServiciosExtraordinariosRoutingModule</title>
<polygon fill="#8dd3c7" stroke="black" points="970.85,-122 967.85,-126 946.85,-126 943.85,-122 727.15,-122 727.15,-86 970.85,-86 970.85,-122"/>
<text text-anchor="middle" x="849" y="-99.8" font-family="Times,serif" font-size="14.00">ServiciosExtraordinariosRoutingModule</text>
</g>
<!-- ServiciosExtraordinariosRoutingModule&#45;&gt;ServiciosExtraordinariosModule -->
<g id="edge18" class="edge">
<title>ServiciosExtraordinariosRoutingModule&#45;&gt;ServiciosExtraordinariosModule</title>
<path fill="none" stroke="black" d="M849,-122.17C849,-141.09 849,-168 849,-168 849,-168 1731.34,-168 1731.34,-168"/>
<polygon fill="black" stroke="black" points="1731.34,-171.5 1741.34,-168 1731.34,-164.5 1731.34,-171.5"/>
</g>
<!-- SharedModule -->
<g id="node20" class="node">
<title>SharedModule</title>
<polygon fill="#8dd3c7" stroke="black" points="709.42,-122 706.42,-126 685.42,-126 682.42,-122 610.58,-122 610.58,-86 709.42,-86 709.42,-122"/>
<text text-anchor="middle" x="660" y="-99.8" font-family="Times,serif" font-size="14.00">SharedModule</text>
</g>
<!-- SharedModule&#45;&gt;ServiciosExtraordinariosModule -->
<g id="edge19" class="edge">
<title>SharedModule&#45;&gt;ServiciosExtraordinariosModule</title>
<path fill="none" stroke="black" d="M660,-122.31C660,-142.15 660,-171 660,-171 660,-171 1731.58,-171 1731.58,-171"/>
<polygon fill="black" stroke="black" points="1731.58,-174.5 1741.58,-171 1731.58,-167.5 1731.58,-174.5"/>
</g>
<!-- SolicitanteComponent -->
<g id="node21" class="node">
<title>SolicitanteComponent</title>
<polygon fill="#8dd3c7" stroke="black" points="592.71,-122 589.71,-126 568.71,-126 565.71,-122 451.29,-122 451.29,-86 592.71,-86 592.71,-122"/>
<text text-anchor="middle" x="522" y="-99.8" font-family="Times,serif" font-size="14.00">SolicitanteComponent</text>
</g>
<!-- SolicitanteComponent&#45;&gt;ServiciosExtraordinariosModule -->
<g id="edge20" class="edge">
<title>SolicitanteComponent&#45;&gt;ServiciosExtraordinariosModule</title>
<path fill="none" stroke="black" d="M522,-122.03C522,-142.77 522,-174 522,-174 522,-174 1731.59,-174 1731.59,-174"/>
<polygon fill="black" stroke="black" points="1731.59,-177.5 1741.59,-174 1731.59,-170.5 1731.59,-177.5"/>
</g>
<!-- TituloComponent -->
<g id="node22" class="node">
<title>TituloComponent</title>
<polygon fill="#8dd3c7" stroke="black" points="433.56,-122 430.56,-126 409.56,-126 406.56,-122 318.44,-122 318.44,-86 433.56,-86 433.56,-122"/>
<text text-anchor="middle" x="376" y="-99.8" font-family="Times,serif" font-size="14.00">TituloComponent</text>
</g>
<!-- TituloComponent&#45;&gt;ServiciosExtraordinariosModule -->
<g id="edge21" class="edge">
<title>TituloComponent&#45;&gt;ServiciosExtraordinariosModule</title>
<path fill="none" stroke="black" d="M376,-122.29C376,-144.21 376,-178 376,-178 376,-178 1731.74,-178 1731.74,-178"/>
<polygon fill="black" stroke="black" points="1731.74,-181.5 1741.74,-178 1731.74,-174.5 1731.74,-181.5"/>
</g>
<!-- WizardComponent -->
<g id="node23" class="node">
<title>WizardComponent</title>
<polygon fill="#8dd3c7" stroke="black" points="300.03,-122 297.03,-126 276.03,-126 273.03,-122 177.97,-122 177.97,-86 300.03,-86 300.03,-122"/>
<text text-anchor="middle" x="239" y="-99.8" font-family="Times,serif" font-size="14.00">WizardComponent</text>
</g>
<!-- WizardComponent&#45;&gt;ServiciosExtraordinariosModule -->
<g id="edge22" class="edge">
<title>WizardComponent&#45;&gt;ServiciosExtraordinariosModule</title>
<path fill="none" stroke="black" d="M239,-122.25C239,-145.02 239,-181 239,-181 239,-181 1731.7,-181 1731.7,-181"/>
<polygon fill="black" stroke="black" points="1731.7,-184.5 1741.7,-181 1731.7,-177.5 1731.7,-184.5"/>
</g>
</g>
</svg>
