<?xml version="1.0" encoding="UTF-8" standalone="no"?>
<!DOCTYPE svg PUBLIC "-//W3C//DTD SVG 1.1//EN"
 "http://www.w3.org/Graphics/SVG/1.1/DTD/svg11.dtd">
<!-- Generated by graphviz version 2.47.0 (20210316.0004)
 -->
<!-- Title: dependencies Pages: 1 -->
<svg width="1559pt" height="284pt"
 viewBox="0.00 0.00 1559.00 284.00" xmlns="http://www.w3.org/2000/svg" xmlns:xlink="http://www.w3.org/1999/xlink">
<g id="graph0" class="graph" transform="scale(1 1) rotate(0) translate(4 280)">
<title>dependencies</title>
<polygon fill="white" stroke="transparent" points="-4,4 -4,-280 1555,-280 1555,4 -4,4"/>
<text text-anchor="start" x="754.51" y="-42.4" font-family="Times-12" font-weight="bold" font-size="14.00">Legend</text>
<polygon fill="#ffffb3" stroke="transparent" points="541.5,-10 541.5,-30 561.5,-30 561.5,-10 541.5,-10"/>
<text text-anchor="start" x="565.13" y="-15.4" font-family="Times-12" font-size="14.00"> &#160;Declarations</text>
<polygon fill="#8dd3c7" stroke="transparent" points="654.5,-10 654.5,-30 674.5,-30 674.5,-10 654.5,-10"/>
<text text-anchor="start" x="678.23" y="-15.4" font-family="Times-12" font-size="14.00"> &#160;Module</text>
<polygon fill="#80b1d3" stroke="transparent" points="740.5,-10 740.5,-30 760.5,-30 760.5,-10 740.5,-10"/>
<text text-anchor="start" x="764.28" y="-15.4" font-family="Times-12" font-size="14.00"> &#160;Bootstrap</text>
<polygon fill="#fdb462" stroke="transparent" points="837.5,-10 837.5,-30 857.5,-30 857.5,-10 837.5,-10"/>
<text text-anchor="start" x="861.17" y="-15.4" font-family="Times-12" font-size="14.00"> &#160;Providers</text>
<polygon fill="#fb8072" stroke="transparent" points="933.5,-10 933.5,-30 953.5,-30 953.5,-10 933.5,-10"/>
<text text-anchor="start" x="957.23" y="-15.4" font-family="Times-12" font-size="14.00"> &#160;Exports</text>
<g id="clust1" class="cluster">
<title>cluster_AppModule</title>
<polygon fill="none" stroke="black" stroke-dasharray="1,5" points="8,-70 8,-268 1543,-268 1543,-70 8,-70"/>
</g>
<g id="clust2" class="cluster">
<title>cluster_AppModule_declarations</title>
<polygon fill="none" stroke="black" points="1215,-78 1215,-130 1535,-130 1535,-78 1215,-78"/>
</g>
<g id="clust5" class="cluster">
<title>cluster_AppModule_imports</title>
<polygon fill="none" stroke="black" points="16,-78 16,-130 1207,-130 1207,-78 16,-78"/>
</g>
<g id="clust7" class="cluster">
<title>cluster_AppModule_bootstrap</title>
<polygon fill="none" stroke="black" points="630,-208 630,-260 754,-260 754,-208 630,-208"/>
</g>
<!-- AppComponent -->
<g id="node1" class="node">
<title>AppComponent</title>
<polygon fill="#ffffb3" stroke="black" points="1526.94,-122 1421.06,-122 1421.06,-86 1526.94,-86 1526.94,-122"/>
<text text-anchor="middle" x="1474" y="-99.8" font-family="Times,serif" font-size="14.00">AppComponent</text>
</g>
<!-- AppModule -->
<g id="node3" class="node">
<title>AppModule</title>
<polygon fill="#8dd3c7" stroke="black" points="733.66,-187 730.66,-191 709.66,-191 706.66,-187 650.34,-187 650.34,-151 733.66,-151 733.66,-187"/>
<text text-anchor="middle" x="692" y="-164.8" font-family="Times,serif" font-size="14.00">AppModule</text>
</g>
<!-- AppComponent&#45;&gt;AppModule -->
<g id="edge1" class="edge">
<title>AppComponent&#45;&gt;AppModule</title>
<path fill="none" stroke="black" d="M1474,-122.25C1474,-145.02 1474,-181 1474,-181 1474,-181 743.77,-181 743.77,-181"/>
<polygon fill="black" stroke="black" points="743.77,-177.5 733.77,-181 743.77,-184.5 743.77,-177.5"/>
</g>
<!-- SeleccionTramiteComponent -->
<g id="node2" class="node">
<title>SeleccionTramiteComponent</title>
<polygon fill="#ffffb3" stroke="black" points="1403.07,-122 1222.93,-122 1222.93,-86 1403.07,-86 1403.07,-122"/>
<text text-anchor="middle" x="1313" y="-99.8" font-family="Times,serif" font-size="14.00">SeleccionTramiteComponent</text>
</g>
<!-- SeleccionTramiteComponent&#45;&gt;AppModule -->
<g id="edge2" class="edge">
<title>SeleccionTramiteComponent&#45;&gt;AppModule</title>
<path fill="none" stroke="black" d="M1313,-122.28C1313,-143.32 1313,-175 1313,-175 1313,-175 743.71,-175 743.71,-175"/>
<polygon fill="black" stroke="black" points="743.71,-171.5 733.71,-175 743.71,-178.5 743.71,-171.5"/>
</g>
<!-- AppComponent  -->
<g id="node12" class="node">
<title>AppComponent </title>
<polygon fill="#80b1d3" stroke="black" points="746.44,-252 637.56,-252 637.56,-216 746.44,-216 746.44,-252"/>
<text text-anchor="middle" x="692" y="-229.8" font-family="Times,serif" font-size="14.00">AppComponent </text>
</g>
<!-- AppModule&#45;&gt;AppComponent  -->
<g id="edge12" class="edge">
<title>AppModule&#45;&gt;AppComponent </title>
<path fill="none" stroke="black" stroke-dasharray="1,5" d="M692,-187.11C692,-187.11 692,-205.99 692,-205.99"/>
<polygon fill="black" stroke="black" points="688.5,-205.99 692,-215.99 695.5,-205.99 688.5,-205.99"/>
</g>
<!-- AkitaNgDevtools -->
<g id="node4" class="node">
<title>AkitaNgDevtools</title>
<polygon fill="#8dd3c7" stroke="black" points="1199.26,-122 1196.26,-126 1175.26,-126 1172.26,-122 1084.74,-122 1084.74,-86 1199.26,-86 1199.26,-122"/>
<text text-anchor="middle" x="1142" y="-99.8" font-family="Times,serif" font-size="14.00">AkitaNgDevtools</text>
</g>
<!-- AkitaNgDevtools&#45;&gt;AppModule -->
<g id="edge3" class="edge">
<title>AkitaNgDevtools&#45;&gt;AppModule</title>
<path fill="none" stroke="black" d="M1142,-122.11C1142,-141.34 1142,-169 1142,-169 1142,-169 743.93,-169 743.93,-169"/>
<polygon fill="black" stroke="black" points="743.93,-165.5 733.93,-169 743.93,-172.5 743.93,-165.5"/>
</g>
<!-- AppRoutingModule -->
<g id="node5" class="node">
<title>AppRoutingModule</title>
<polygon fill="#8dd3c7" stroke="black" points="1066.27,-122 1063.27,-126 1042.27,-126 1039.27,-122 937.73,-122 937.73,-86 1066.27,-86 1066.27,-122"/>
<text text-anchor="middle" x="1002" y="-99.8" font-family="Times,serif" font-size="14.00">AppRoutingModule</text>
</g>
<!-- AppRoutingModule&#45;&gt;AppModule -->
<g id="edge4" class="edge">
<title>AppRoutingModule&#45;&gt;AppModule</title>
<path fill="none" stroke="black" d="M1002,-122.02C1002,-139.37 1002,-163 1002,-163 1002,-163 743.81,-163 743.81,-163"/>
<polygon fill="black" stroke="black" points="743.81,-159.5 733.81,-163 743.81,-166.5 743.81,-159.5"/>
</g>
<!-- BreadcrumbComponent -->
<g id="node6" class="node">
<title>BreadcrumbComponent</title>
<polygon fill="#8dd3c7" stroke="black" points="919.03,-122 916.03,-126 895.03,-126 892.03,-122 768.97,-122 768.97,-86 919.03,-86 919.03,-122"/>
<text text-anchor="middle" x="844" y="-99.8" font-family="Times,serif" font-size="14.00">BreadcrumbComponent</text>
</g>
<!-- BreadcrumbComponent&#45;&gt;AppModule -->
<g id="edge5" class="edge">
<title>BreadcrumbComponent&#45;&gt;AppModule</title>
<path fill="none" stroke="black" d="M844,-122.24C844,-137.57 844,-157 844,-157 844,-157 743.94,-157 743.94,-157"/>
<polygon fill="black" stroke="black" points="743.94,-153.5 733.94,-157 743.94,-160.5 743.94,-153.5"/>
</g>
<!-- FooterComponent -->
<g id="node7" class="node">
<title>FooterComponent</title>
<polygon fill="#8dd3c7" stroke="black" points="750.88,-122 747.88,-126 726.88,-126 723.88,-122 633.12,-122 633.12,-86 750.88,-86 750.88,-122"/>
<text text-anchor="middle" x="692" y="-99.8" font-family="Times,serif" font-size="14.00">FooterComponent</text>
</g>
<!-- FooterComponent&#45;&gt;AppModule -->
<g id="edge6" class="edge">
<title>FooterComponent&#45;&gt;AppModule</title>
<path fill="none" stroke="black" d="M692,-122.11C692,-122.11 692,-140.99 692,-140.99"/>
<polygon fill="black" stroke="black" points="688.5,-140.99 692,-150.99 695.5,-140.99 688.5,-140.99"/>
</g>
<!-- HeaderComponent -->
<g id="node8" class="node">
<title>HeaderComponent</title>
<polygon fill="#8dd3c7" stroke="black" points="614.74,-122 611.74,-126 590.74,-126 587.74,-122 493.26,-122 493.26,-86 614.74,-86 614.74,-122"/>
<text text-anchor="middle" x="554" y="-99.8" font-family="Times,serif" font-size="14.00">HeaderComponent</text>
</g>
<!-- HeaderComponent&#45;&gt;AppModule -->
<g id="edge7" class="edge">
<title>HeaderComponent&#45;&gt;AppModule</title>
<path fill="none" stroke="black" d="M554,-122.24C554,-137.57 554,-157 554,-157 554,-157 640.22,-157 640.22,-157"/>
<polygon fill="black" stroke="black" points="640.22,-160.5 650.22,-157 640.22,-153.5 640.22,-160.5"/>
</g>
<!-- InformacionUsuarioComponent -->
<g id="node9" class="node">
<title>InformacionUsuarioComponent</title>
<polygon fill="#8dd3c7" stroke="black" points="475.34,-122 472.34,-126 451.34,-126 448.34,-122 280.66,-122 280.66,-86 475.34,-86 475.34,-122"/>
<text text-anchor="middle" x="378" y="-99.8" font-family="Times,serif" font-size="14.00">InformacionUsuarioComponent</text>
</g>
<!-- InformacionUsuarioComponent&#45;&gt;AppModule -->
<g id="edge8" class="edge">
<title>InformacionUsuarioComponent&#45;&gt;AppModule</title>
<path fill="none" stroke="black" d="M345.53,-122.11C345.53,-141.34 345.53,-169 345.53,-169 345.53,-169 640.21,-169 640.21,-169"/>
<polygon fill="black" stroke="black" points="640.21,-172.5 650.21,-169 640.21,-165.5 640.21,-172.5"/>
</g>
<!-- InformacionUsuarioComponent&#45;&gt;AppModule -->
<g id="edge9" class="edge">
<title>InformacionUsuarioComponent&#45;&gt;AppModule</title>
<path fill="none" stroke="black" d="M410.47,-122.02C410.47,-139.37 410.47,-163 410.47,-163 410.47,-163 640.16,-163 640.16,-163"/>
<polygon fill="black" stroke="black" points="640.16,-166.5 650.16,-163 640.16,-159.5 640.16,-166.5"/>
</g>
<!-- NavComponent -->
<g id="node10" class="node">
<title>NavComponent</title>
<polygon fill="#8dd3c7" stroke="black" points="262.15,-122 259.15,-126 238.15,-126 235.15,-122 157.85,-122 157.85,-86 262.15,-86 262.15,-122"/>
<text text-anchor="middle" x="210" y="-99.8" font-family="Times,serif" font-size="14.00">NavComponent</text>
</g>
<!-- NavComponent&#45;&gt;AppModule -->
<g id="edge10" class="edge">
<title>NavComponent&#45;&gt;AppModule</title>
<path fill="none" stroke="black" d="M210,-122.28C210,-143.32 210,-175 210,-175 210,-175 640.07,-175 640.07,-175"/>
<polygon fill="black" stroke="black" points="640.07,-178.5 650.07,-175 640.07,-171.5 640.07,-178.5"/>
</g>
<!-- TituloComponent -->
<g id="node11" class="node">
<title>TituloComponent</title>
<polygon fill="#8dd3c7" stroke="black" points="139.56,-122 136.56,-126 115.56,-126 112.56,-122 24.44,-122 24.44,-86 139.56,-86 139.56,-122"/>
<text text-anchor="middle" x="82" y="-99.8" font-family="Times,serif" font-size="14.00">TituloComponent</text>
</g>
<!-- TituloComponent&#45;&gt;AppModule -->
<g id="edge11" class="edge">
<title>TituloComponent&#45;&gt;AppModule</title>
<path fill="none" stroke="black" d="M82,-122.25C82,-145.02 82,-181 82,-181 82,-181 640.07,-181 640.07,-181"/>
<polygon fill="black" stroke="black" points="640.07,-184.5 650.07,-181 640.07,-177.5 640.07,-184.5"/>
</g>
</g>
</svg>
